<?xml version="1.0" encoding="UTF-8" standalone="no"?>
<!-- Created with Inkscape (http://www.inkscape.org/) -->

<svg
   width="200mm"
   height="200mm"
   viewBox="0 0 200 200"
   version="1.1"
   id="svg1"
   xml:space="preserve"
   inkscape:version="1.4 (86a8ad7, 2024-10-11)"
   sodipodi:docname="logo.svg"
   xmlns:inkscape="http://www.inkscape.org/namespaces/inkscape"
   xmlns:sodipodi="http://sodipodi.sourceforge.net/DTD/sodipodi-0.dtd"
   xmlns="http://www.w3.org/2000/svg"
   xmlns:svg="http://www.w3.org/2000/svg"><sodipodi:namedview
     id="namedview1"
     pagecolor="#ffffff"
     bordercolor="#000000"
     borderopacity="0.25"
     inkscape:showpageshadow="2"
     inkscape:pageopacity="0.0"
     inkscape:pagecheckerboard="0"
     inkscape:deskcolor="#d1d1d1"
     inkscape:document-units="mm"
     inkscape:zoom="0.71891835"
     inkscape:cx="441.63569"
     inkscape:cy="476.41015"
     inkscape:window-width="1920"
     inkscape:window-height="1009"
     inkscape:window-x="1912"
     inkscape:window-y="-8"
     inkscape:window-maximized="1"
     inkscape:current-layer="layer1" /><defs
     id="defs1" /><g
     inkscape:label="Warstwa 1"
     inkscape:groupmode="layer"
     id="layer1"><path
       style="fill:#db0000;fill-opacity:1;stroke-width:1"
       d="m 119.57383,180.54289 c -3.93377,-0.43714 -7.52247,-1.10648 -14.25964,-2.65962 -12.096308,-2.78859 -17.846951,-3.25225 -30.608404,-2.46784 -16.580079,1.01912 -26.251162,0.002 -34.32806,-3.61071 -4.316389,-1.93062 -6.755867,-3.47385 -9.556832,-6.04575 -1.991994,-1.82907 -2.631254,-2.59884 -3.501197,-4.21603 -1.718996,-3.19553 -1.87567,-4.33561 -1.745325,-12.70019 0.121732,-7.81176 0.225883,-8.51528 1.60431,-10.83675 1.133693,-1.90932 4.227016,-4.40771 7.151108,-5.77577 4.867327,-2.27723 7.653289,-2.50935 9.154802,-0.7628 0.862367,1.00311 0.102868,1.67943 -2.47116,2.20056 -4.353314,0.88134 -8.344077,3.355 -9.79345,6.07043 -0.610387,1.14357 -0.67482,1.49298 -0.592405,3.21254 0.131905,2.75216 1.09422,4.54633 3.712953,6.92252 7.697991,6.98499 21.149941,9.75097 39.72955,8.16917 7.223347,-0.61499 14.950488,-0.72502 18.562581,-0.26435 3.132785,0.39954 12.052039,2.13652 16.909749,3.29307 10.83824,2.58045 17.37502,2.96501 25.42819,1.49591 5.00741,-0.91348 11.9045,-3.50918 16.00179,-6.02222 7.11004,-4.36088 10.6945,-9.18536 11.61474,-15.63271 0.69795,-4.88999 -1.15481,-9.38565 -5.55524,-13.47964 -6.00198,-5.58398 -15.83277,-8.90945 -28.79977,-9.74215 -2.3076,-0.14819 -4.28793,-0.34304 -4.40073,-0.43302 -0.33756,-0.2693 2.23625,-2.21868 3.32365,-2.51732 2.2604,-0.62076 8.58167,-0.19767 13.91832,0.93162 5.05698,1.07009 10.28546,3.12172 14.62121,5.73732 4.16173,2.51059 8.82105,7.39726 10.14442,10.63936 1.30396,3.19462 1.42541,4.4666 1.42541,14.92957 0,8.4011 -0.0618,10.04401 -0.43677,11.58434 -1.65569,6.80389 -8.10294,13.0539 -18.12581,17.57125 -5.11066,2.30339 -10.49554,3.75624 -16.73744,4.51582 -2.63345,0.32045 -9.04362,0.2653 -12.39055,-0.10661 z m 1.66554,-21.00466 c -3.02291,-0.28839 -6.93705,-1.015 -14.36693,-2.66704 -4.54528,-1.01066 -9.751704,-2.06122 -11.569818,-2.33457 -6.104691,-0.91785 -12.48822,-0.94342 -22.37681,-0.0897 -7.650089,0.66052 -16.801031,0.27135 -22.137317,-0.94144 -7.290981,-1.65703 -13.084784,-4.86165 -14.89467,-8.23841 -1.507697,-2.81293 -0.443811,-5.74311 2.598244,-7.15613 1.953086,-0.90719 3.921692,-1.29885 7.370288,-1.46636 l 3.196093,-0.15523 -7.061474,-8.82976 c -4.415745,-5.52149 -7.209035,-9.2267 -7.455316,-9.88923 -0.216613,-0.58273 -0.393842,-1.83869 -0.393842,-2.79104 0,-1.44289 0.127146,-1.97575 0.762699,-3.1964 1.074208,-2.06314 2.915979,-3.51087 8.154751,-6.41004 16.926687,-9.367351 34.062043,-21.401569 49.429399,-34.714447 9.253033,-8.01599 35.229573,-31.434252 53.155773,-47.92079 8.38209,-7.708918 9.86867,-8.940942 11.72027,-9.713316 1.57491,-0.656961 4.429,-0.71614 6.46089,-0.133963 4.28646,1.22816 8.37369,4.897747 9.95571,8.938383 1.41318,3.609468 0.57234,7.917968 -2.03637,10.434359 -1.48491,1.43237 -2.78947,1.892435 -6.71683,2.368768 -1.48577,0.180205 -3.66234,1.203996 -5.48703,2.580944 -0.7531,0.568295 -4.41676,3.740053 -8.14151,7.048354 -3.72474,3.308302 -10.48918,9.207999 -15.03209,13.110438 -11.56,9.930248 -15.99533,13.938136 -16.57277,14.975657 -0.5388,0.968076 -0.66362,2.710524 -0.26257,3.664892 0.348,0.828095 1.74556,2.474791 4.72812,5.571028 1.41203,1.46583 4.88447,5.06943 7.71652,8.008 2.83208,2.938572 5.14921,5.497658 5.14921,5.686848 0,0.949552 -17.08803,20.030105 -23.65261,26.410585 -3.84234,3.73457 -12.98748,12.04373 -14.535809,13.20705 -0.65472,0.49192 -1.157553,0.99928 -1.117395,1.12749 0.143732,0.4589 2.412614,0.17282 3.572964,-0.45049 2.52632,-1.35708 8.5638,-5.96141 14.87267,-11.34219 1.89303,-1.61455 3.69181,-3.05676 3.99729,-3.20489 0.7411,-0.35935 3.146,-0.33778 8.23665,0.0738 11.50896,0.93066 19.53207,3.53567 24.49629,7.95366 10.7165,9.53733 4.10042,23.1408 -13.88788,28.55517 -4.32419,1.30155 -7.95192,1.85411 -12.78916,1.94795 -2.23767,0.0435 -4.5262,0.0353 -5.08563,-0.0181 z m 13.85836,-13.02775 c 5.92609,-1.6974 8.50562,-5.32213 6.40745,-9.00364 -1.74435,-3.06071 -6.89289,-4.81371 -13.40019,-4.56263 -5.39672,0.20826 -9.53401,1.48052 -11.51169,3.53996 -3.61077,3.76005 -0.84087,8.41489 5.94992,9.9989 2.33582,0.54485 2.76335,0.57497 7.08747,0.49924 2.95321,-0.0517 4.45187,-0.18105 5.46704,-0.47183 z m -8.89986,-3.05893 c -0.34964,-0.0612 -1.35356,-0.32496 -2.23095,-0.58586 -4.44248,-1.321 -4.53183,-4.37555 -0.17074,-5.83753 1.25854,-0.4219 2.0653,-0.50758 4.81738,-0.51161 2.88203,-0.004 3.50118,0.0656 4.83134,0.54569 3.22285,1.16293 4.09767,3.00989 2.20667,4.65879 -1.33526,1.16429 -3.16647,1.68064 -6.27518,1.7694 -1.39855,0.04 -2.82889,0.0225 -3.17852,-0.0388 z m -56.196301,1.85526 c 10.860834,-1.45169 15.02642,-1.87575 21.741105,-2.21326 l 5.848485,-0.29396 -3.178525,-0.51702 c -8.823163,-1.43518 -12.350188,-1.27544 -26.318179,1.19189 -7.14373,1.26188 -9.709586,1.66244 -12.841235,2.00461 -1.328625,0.14517 -2.530106,0.33111 -2.669961,0.41322 -0.542737,0.31859 3.679215,0.68182 6.611329,0.56879 1.678261,-0.0647 6.541402,-0.58413 10.806981,-1.15427 z m -15.066203,0.70114 c 0.174819,-0.0646 0.460886,-0.0646 0.635705,0 0.174819,0.0646 0.03178,0.11756 -0.317851,0.11756 -0.34964,0 -0.492673,-0.053 -0.317854,-0.11756 z M 84.37124,135.47177 c 0.560928,-0.23357 2.391758,-1.37332 4.068511,-2.53275 9.664278,-6.68262 20.242909,-16.60076 31.266429,-29.31419 3.84013,-4.428852 7.5905,-8.886 8.22964,-9.780568 0.18666,-0.261279 -2.3191,2.04224 -5.56836,5.118924 -10.70631,10.137634 -19.62546,18.108824 -29.357168,26.236994 -5.355496,4.47306 -10.264198,8.4049 -11.83535,9.48008 -1.04995,0.71852 -1.190012,0.89521 -0.81682,1.03044 0.861778,0.31229 2.994271,0.18534 4.013118,-0.23893 z M 49.247959,119.96694 c 1.854978,-0.71044 2.750513,-3.21339 1.698947,-4.74841 -1.100319,-1.60619 -3.474556,-2.16599 -5.360369,-1.26387 -1.177127,0.56311 -2.152372,2.28626 -1.924392,3.40017 0.459139,2.24338 3.200898,3.52552 5.585814,2.61211 z M 161.80566,27.636121 c 1.57202,-0.745148 2.03466,-3.009555 0.87333,-4.274632 -1.33988,-1.459629 -3.71401,-1.476039 -5.03703,-0.03481 -0.8569,0.933476 -1.04371,1.865202 -0.57855,2.885652 0.70763,1.552434 3.01156,2.244155 4.74225,1.423796 z"
       id="path1" /></g></svg>
